<?xml version="1.0" encoding="utf-8"?>
<!-- Generator: Adobe Illustrator 20.1.0, SVG Export Plug-In . SVG Version: 6.00 Build 0)  -->
<svg version="1.1" id="Layer_1" xmlns="http://www.w3.org/2000/svg" xmlns:xlink="http://www.w3.org/1999/xlink" x="0px" y="0px"
	 viewBox="0 0 425.3 184" style="enable-background:new 0 0 425.3 184;" xml:space="preserve">
<style type="text/css">
	.st0{fill:#121C4D;}
	.st1{fill:#003081;}
	.st2{fill:#4FA700;}
	.st3{fill:#D3470F;}
	.st4{fill:#FFFFFF;}
	.st5{fill:#DFDA6E;}
	.st6{fill:#AB390C;}
</style>
<title>VeggieHeaderLogo</title>
<g>
	<path class="st0" d="M344.4,38.4c20.5,4.3,37.3,10.9,52.8,20.2C412.7,68,423,78,424.8,87.6c1,4.6,0.4,9.4-1.7,13.6
		c-2.3,4.3-6.5,6.7-7,4.2c-0.2-4.3-1.4-8.6-3.5-12.4c-1.1-2.2-2.5-4.3-4.2-6.2c-4.9-5.2-12.8-10.4-21.9-14.6
		c12.6,8,19.2,17.1,21.3,28.5c2.4,13.2-2.3,25.8-17,35.1c-3.6,2.4-7.4,4.3-11.4,5.8c-4.3,1.4-10.1,0.9-6.8-1.3
		c3.3-2.3,6.2-5.2,8.5-8.5c4.6-6.5,4.5-14.4,1.1-21.5c1.2,9.5-4.1,18.8-16,29c-17,14.6-42.1,26.1-74.1,29.5
		c-5.7,0.6-8.3-2.5-2.9-3.5c19.4-3.6,35.2-13.3,43.2-23.1c-10.4,8.5-26.3,15.4-49,21.8c-22.4,6.3-46.2,10.5-69.3,11.4
		c-10.2,0.4-20.4,0-30.6-1.1c-5.6-0.6-4.5-2.6,1.3-2.6c9.6,0,17.9-1.3,27-2.5c13.2-1.9,26.1-5.1,38.6-9.5
		c-19.3,5.2-41.5,7.9-68.9,8.8c-23.6,0.7-46.3-0.1-65.7-3.1c-12.8-1.9-24.1-4.8-33.3-8.7c-4.1-1.7-1.2-3.1,3.6-2
		c25.1,5.3,47.8,5.2,72.1,3.2c-23,0.5-45.5-1.7-70.3-6.6c-18.3-3.6-34.7-8.1-47.3-13.5c-4.1-1.7-8.1-3.8-11.7-6.4
		c-13.7-9.1-13.4-16.9-10.7-15.1c5.4,3.6,11,6.8,17,9.4c11.4,5.1,28.5,9.2,45.5,11.5c-20.5-4.3-37.4-10.9-52.8-20.2
		C10.8,106.8-0.1,95.6,0,85c0.2-4,1.4-7.8,3.4-11.2c2.7-3.9,7.4-7.9,7-1.8c-0.2,3.7,0.5,7.4,2,10.7c3.1,7.2,15.5,16.8,26.1,20.7
		c-12.6-8-19.2-17.1-21.3-28.5c-2.3-12.8,1.8-25.3,15.6-34.2c15.9-10.3,22.6-7.9,19.2-5.5c-2.5,1.8-4.8,3.9-6.7,6.3
		c-5.9,7.7-6.2,16-2.5,23.8c-1.2-9.5,4.1-18.8,16-29c13-11.1,30.6-20.5,52.4-25.8c6.8-1.7,8.8-2.4,16.5-3.1
		c10.9-1.1,13.6,1.2,8.3,2.4c-5.4,1.2-10.7,2.9-15.8,5c-12.1,4.7-21.7,11.7-27.4,18.6c10.4-8.5,26.3-15.4,49-21.8
		c23.6-6.7,48.9-11,73.2-11.5c8.9-0.3,17.8-0.2,26.7,0.5c5.6,0.5,4.2,3.8-1.7,3.7c-7.6-0.2-15.7,0.8-23.9,1.8
		c-14.1,1.8-28,5.1-41.3,9.9c19.3-5.2,41.5-7.9,68.8-8.8c29.2-0.9,57.1,0.6,78.9,5.5c6.9,1.5,13.6,3.5,20,6.2c4.1,1.7,2.1,4-2.7,2.8
		c-3.1-0.8-13.7-2.6-19.9-3.4c-16-2-35.7-2-53.1-0.6c23-0.5,45.5,1.7,70.3,6.6c21.8,4.3,40.8,9.9,54.1,16.7
		c8.3,4.2,14.3,8.9,17.5,13.9c1.5,2.3,2.8,7.2-4.3,2.3c-3.8-2.7-12-6.5-18-8.8C375,44.1,359.6,40.6,344.4,38.4z"/>
	<path class="st1" d="M44.3,68.6c-0.5-1.1-1-2.2-1.4-3.4c-1.1-9.4,4.2-18.7,16-28.8c13-11.1,30.6-20.5,52.4-25.8
		c6.8-1.7,8.8-2.4,16.5-3.1c10.9-1.1,13.6,1.2,8.3,2.4c-5.4,1.2-10.7,2.9-15.8,5c-11.8,4.6-21.4,11.4-27,18.1c-2.5,2.3-4.5,5-5.9,8
		c-4,9.5-2.1,15.7,7.2,24.6c9.3,8.7,23,15.4,40.2,19.8c-8.7,2.7-21.2,7-31.2,11.9c-10-1.6-19.9-4.1-29.4-7.5
		C57.8,83.8,49.9,77.3,44.3,68.6z M159.8,21c5.6-2,10.9-3.8,16-5.3c19.1-5,40.9-7.7,67.8-8.5c29.2-0.9,57.1,0.6,78.9,5.5
		c6.9,1.5,13.6,3.5,20,6.2c4.1,1.7,2.1,4-2.7,2.8c-3.1-0.8-13.7-2.6-19.9-3.4c-16-2-35.7-2-53.1-0.6c1.2,0,2.4,0,3.7-0.1
		c-9.1,0.3-18.1,1.2-29,2.6c-14.7,2.6-24.8,5.3-33.8,9.4c-1.5-3.6-4-8.1-7.4-7.5c-4.6,0.9-4.2,10-4.3,13.4c-5.5-2.3-12-2.9-17.2,0.6
		c-4.5,3.1-1.2,8.2,2.4,8.5c1,0.1,1.9,0.3,2.8,0.6c-2,2.1-3.7,4.4-5,7c-13.6,3-22.1,10.8-26.7,19.5c-14.5-8.1-20.9-18.4-16.9-29.5
		C138.6,33.4,145.3,27.6,159.8,21L159.8,21z M289.2,165.4c19.2-3.5,35-13.2,42.9-22.8c3.5-3.5,6.1-7.8,7.5-12.5
		c1.5-9.6-1.9-15.7-13.4-24.1c-9-6.5-20.4-11.7-33.7-15.3c14-4.3,25.6-8.7,33.7-13c4.8,1,9.6,2.1,14.2,3.4
		c27.5,7.9,40,17.1,41.9,30.9c0.4,8.9-5,17.7-16.2,27.3c-17,14.6-42.1,26.1-74.1,29.5C286.4,169.5,283.8,166.4,289.2,165.4z
		 M408.5,86.9c-4.6-5-12-9.9-20.5-14c-2.3-1.3-4.6-2.5-7-3.5c-18.3-7.7-30.9-10.1-52.4-11.7c-12.5-3.1-33.5-1.9-45.3-1
		c-2.3,0.2-3.5,0.3-5.8,0.5l-2.6,0.2l-1.2,0.2c-1.4,0.2-2.6,0.3-4.2,0.6c-3.9-7.2-10.5-12.5-18.3-14.9c11.7-3.4,23.7-5.7,35.8-6.8
		c21.1-2.1,36.8-1.3,57.2,1.7l1.2,0.3l-0.8-0.1c20.5,4.3,37.3,10.9,52.8,20.2C412.7,68,423,78,424.8,87.6c1,4.6,0.4,9.4-1.7,13.6
		c-2.3,4.3-6.5,6.7-7,4.2c-0.2-4.3-1.4-8.6-3.5-12.4C411.6,90.9,410.1,88.8,408.5,86.9z M252.9,159.2l-3.8,1.1l1.2-0.4
		c-19.3,5.2-41.5,7.9-68.9,8.8c-23.6,0.7-46.3-0.1-65.7-3.1c-12.8-1.9-24.1-4.8-33.3-8.7c-4.1-1.7-1.2-3.1,3.6-2
		c25.1,5.3,47.8,5.2,72.1,3.2l-1.9,0c4.5-0.2,9.2-0.6,14.4-1.2c23.9-2.9,37.1-6.2,52.8-14.2c6.2-3,11.9-6.8,17-11.4
		c11.4-6.4,20.6-16,26.7-27.6c20,9.5,27.2,22.7,17.8,36C278.8,148.4,270.5,153.5,252.9,159.2z M80.4,137.3
		c-6.2-1.5-11.5-2.8-16.3-4.1c-12.7-3.8-24.9-9.2-36.3-16C10.8,106.8-0.1,95.6,0,85c0.2-4,1.4-7.8,3.4-11.2c2.7-3.9,7.4-7.9,7-1.8
		c-0.2,3.7,0.5,7.4,2,10.7c3.1,7.2,15.5,16.8,26.1,20.7l-0.4-0.3c6.9,4,14.2,7.2,21.9,9.4c11.2,3.5,22.8,5.6,34.5,6.3
		c11.9,3.7,37,2.8,67.1-1.1c0.9,1.3,1.7,2.3,2.8,3.7c0.7,0.9,1.4,1.8,2.2,2.6c3.4,3.3,7.3,6.1,11.6,8.3c-7.3,2.2-14.7,4-22.1,5.2
		C129.2,142.3,107.3,141.9,80.4,137.3z"/>
	<path class="st0" d="M141.4,83.4l1.9-0.6l1.3-0.4l0.2-0.1c1.6-0.5,2.7-0.8,4.1-1.1c2.6-12.1,12-25.5,31.3-29.2
		c5.3-1,10.2-0.2,14.5,0.8c-4.4-3-7.9-7.7-13.5-8.2c-3.6-0.3-6.9-5.4-2.4-8.5c5.2-3.6,11.7-2.9,17.2-0.6c0.1-3.3-0.3-12.5,4.3-13.4
		c4.6-0.9,7.5,7.7,8.7,10.8c4.3-4.2,10.1-7.2,16.2-5.8c5.6,1.3,3.8,7.3,0.8,8.8c-5.6,2.9-7.2,9.3-10.8,14.1c4.4-3,9.4-6.6,15.8-7.8
		c15.9-3,31.2,2.5,38.4,15.9c1.5-0.2,2.8-0.4,4.2-0.6l1.2-0.2l2.6-0.2c2.2-0.2,3.5-0.3,5.8-0.5c17.3-1.4,53.9-3.2,55.4,8.2
		c1.3,9.8-28.3,21.8-68.7,32.1c-0.4,1.4-0.9,2.9-1.5,4.2c-0.4,0.9-0.6,1.4-1.1,2.3c-3,5.9-16.4,29-46.9,34.9
		c-26.7,5.1-46.5-7-53.8-14.3c-0.8-0.8-1.6-1.7-2.2-2.6c-1.2-1.5-1.9-2.4-2.8-3.7c-41.1,5.3-72.7,5.1-74.6-4.8
		C84.7,100.7,128.3,87.3,141.4,83.4z"/>
	<path class="st2" d="M205.8,52.8c-6.2,1.2-11.6-4.3-15-7.2c-2.6-2.2-5.8-3.6-9.3-4c-1.6-0.1-2.2-1.8-0.9-2.7
		c5.2-3.6,12.9-1.7,18.6,2.1c0-1.4-0.3-15.2,1.7-15.6s6.5,12.6,7,13.9c3.9-5.7,10.4-10.3,16.6-8.9c1.5,0.3,1.5,2.1,0.1,2.9
		c-3,1.7-5.5,4.2-7.2,7.2C215.1,44.4,212,51.6,205.8,52.8z"/>
	<path class="st3" d="M212.9,91.7c-18.7,3.6-42.2,7.4-55.7,8.3c-0.8,0.1-1.6-0.1-2.2-0.6c-0.7-0.3-1.1-0.9-1.4-1.6
		c-6.6-22,7.3-38.8,27.3-42.7c10.3-2,18.9,3.7,26.5,2.2s14-10,24.2-12c20-3.8,38.3,6.9,38.9,30c0,0.8-0.3,1.5-0.8,2
		c-0.5,0.7-1.1,1.1-1.9,1.4C254.9,83,231.6,88.1,212.9,91.7z M167.9,118.3c31.8-4.5,63.2-10.8,94.3-18.8l1.5-0.4
		c0.4-0.1,0.7,0.1,1,0.3c0.5,0.4,0.6,1.1,0.3,1.6c-8.9,17.9-25.6,30.6-45.2,34.3c-32.7,6.3-52.8-14.3-53-16c-0.1-0.5,0.3-1,0.9-1.1
		C167.7,118.3,167.8,118.3,167.9,118.3L167.9,118.3z"/>
	<path class="st4" d="M179.5,65c-2.7-0.8-9.3,3.8-12.5,11.6c-3,7.2-3.4,14.4,3,13.2c4.1-0.8,4.1-7.4,5.8-12.4
		C178.3,70.2,182.8,65.9,179.5,65z"/>
	<path class="st5" d="M215.5,105.5c-67.3,13.6-123.4,16.7-125.3,6.9c-1.2-6.4,21.4-16.8,55.2-26.9l1.5-0.4c0.8-0.1,1.9-0.1,1.8,0.7
		c0,0.6-0.4,1.1-1,1.4l-1.7,0.7c-5.9,2.1-30.1,10.9-29.6,13.8c1.4,7.4,45,4.9,97.4-5.7c52.5-9.5,94.3-23.4,93.4-30.9
		c-0.4-3-25.9-2.2-32.1-2l-1.8,0c-0.6,0-1.1-0.4-1.3-0.9c-0.3-0.7,0.7-1.2,1.5-1.3l1.6-0.2c35-3.1,59.5-1.7,60.3,4.7
		C336.7,75.3,283,93.3,215.5,105.5z"/>
	<path class="st5" d="M240.4,149.6c0,0-3.6,0.4-5.1,1.9s-1.9,5.1-1.9,5.1s-0.4-3.6-1.9-5.1s-5.1-1.9-5.1-1.9s3.6-0.4,5.1-1.9
		s1.9-5.1,1.9-5.1s0.4,3.6,1.9,5.1S240.4,149.6,240.4,149.6z M260.1,30.7c0,0-3.6,0.4-5.1,1.9s-1.9,5.1-1.9,5.1s-0.4-3.6-1.9-5.1
		s-5.1-1.9-5.1-1.9s3.6-0.4,5.1-1.9s1.9-5.1,1.9-5.1s0.4,3.6,1.9,5.1S260.1,30.7,260.1,30.7L260.1,30.7z M127.4,58.4
		c0,0-5.3,0.7-7.6,2.9s-2.9,7.6-2.9,7.6s-0.7-5.3-2.9-7.6s-7.6-2.9-7.6-2.9s5.3-0.7,7.6-2.9s2.9-7.6,2.9-7.6s0.7,5.3,2.9,7.6
		S127.4,58.4,127.4,58.4L127.4,58.4z M286.8,113.8c0,0-3.6,0.4-5.1,1.9s-1.9,5.1-1.9,5.1s-0.4-3.6-1.9-5.1s-5.1-1.9-5.1-1.9
		s3.6-0.4,5.1-1.9s1.9-5.1,1.9-5.1s0.4,3.6,1.9,5.1S286.8,113.8,286.8,113.8L286.8,113.8z M305.2,36.9c0,0-5.3,0.7-7.6,2.9
		s-2.9,7.6-2.9,7.6s-0.7-5.3-2.9-7.6s-7.6-2.9-7.6-2.9s5.3-0.7,7.6-2.9s2.9-7.6,2.9-7.6s0.7,5.3,2.9,7.6S305.2,36.9,305.2,36.9
		L305.2,36.9z M158.5,26.3c0,0-3.6,0.4-5.1,1.9s-1.9,5.1-1.9,5.1s-0.4-3.6-1.9-5.1s-5.1-1.9-5.1-1.9s3.6-0.4,5.1-1.9
		s1.9-5.1,1.9-5.1s0.4,3.6,1.9,5.1S158.5,26.3,158.5,26.3z M330.4,124.9c0,0-3.6,0.4-5.1,1.9s-1.9,5.1-1.9,5.1s-0.4-3.6-1.9-5.1
		s-5.1-1.9-5.1-1.9s3.6-0.4,5.1-1.9s1.9-5.1,1.9-5.1s0.4,3.6,1.9,5.1S330.4,124.9,330.4,124.9z M159.8,140.1c0,0-5.3,0.7-7.6,2.9
		s-2.9,7.6-2.9,7.6s-0.7-5.3-2.9-7.6s-7.6-2.9-7.6-2.9s5.3-0.7,7.6-2.9s2.9-7.6,2.9-7.6s0.7,5.3,2.9,7.6S159.8,140.1,159.8,140.1z
		 M75.6,63.6c0,0-3.6,0.4-5.1,1.9s-1.9,5.1-1.9,5.1s-0.4-3.6-1.9-5.1s-5.1-1.9-5.1-1.9s3.6-0.4,5.1-1.9s1.9-5.1,1.9-5.1
		s0.4,3.6,1.9,5.1S75.6,63.6,75.6,63.6z M68.8,113.6c0,0-3.6,0.4-5.1,1.9s-1.9,5.1-1.9,5.1s-0.4-3.6-1.9-5.1s-5.1-1.9-5.1-1.9
		s3.6-0.4,5.1-1.9s1.9-5.1,1.9-5.1s0.4,3.6,1.9,5.1S68.8,113.6,68.8,113.6L68.8,113.6z M358.6,83.5c0,0-3.6,0.4-5.1,1.9
		s-1.9,5.1-1.9,5.1s-0.4-3.6-1.9-5.1s-5.1-1.9-5.1-1.9s3.6-0.4,5.1-1.9s1.9-5.1,1.9-5.1s0.4,3.6,1.9,5.1S358.6,83.5,358.6,83.5z"/>
	<path class="st6" d="M238.1,86.5c11.2-23,8.2-36.2,5.9-41.5c14.6,1.8,26,12.3,26.5,30.5c0,0.8-0.3,1.5-0.8,2
		c-0.5,0.7-1.1,1.1-1.9,1.4C260.4,81.2,249.6,83.9,238.1,86.5z M182.8,131.2c10.3-3.1,27-9.8,40-22.5c13.6-2.8,27-6,39.4-9.2
		l1.5-0.4c0.4-0.1,0.7,0.1,1,0.3c0.5,0.4,0.6,1.1,0.3,1.6c-8.9,17.9-25.6,30.6-45.2,34.3C207.4,137.9,194.4,136.4,182.8,131.2z"/>
</g>
</svg>
