<?xml version="1.0" encoding="utf-8"?>
<!-- Generator: Adobe Illustrator 20.1.0, SVG Export Plug-In . SVG Version: 6.00 Build 0)  -->
<svg version="1.1" id="Layer_1" xmlns="http://www.w3.org/2000/svg" xmlns:xlink="http://www.w3.org/1999/xlink" x="0px" y="0px"
	 viewBox="0 0 547 108.7" style="enable-background:new 0 0 547 108.7;" xml:space="preserve">
<style type="text/css">
	.st0{fill:#4FA700;}
	.st1{fill:#D3470F;}
</style>
<title>VGlogo</title>
<path class="st0" d="M47.8,80.1l-15,0L16.6,65l20-44.5l16.1,0L31.3,68.1l4.1,3.8l23.1-51.3l16.1,0L47.8,80.1z M198,74.2l62.8-0.1
	l-2.7,5.8L195.4,80L198,74.2z M260,40.3l-5.8,0l-3.3,7.3l5.8,0L260,40.3z M188.9,40.4l-5.8,0l-9.2,20.3l5.8,0L188.9,40.4z
	 M142.4,40.5l-5.8,0l-9.2,20.3l5.8,0L142.4,40.5z M95.9,40.6l-5.8,0l-3.3,7.3l5.8,0L95.9,40.6z M73.4,41.8l1.2-2.7
	c0.7-1.4,1.9-2.6,3.3-3.2c1.4-0.8,2.9-1.2,4.5-1.2l26.3,0c3,0,4.4,1,4.2,3.1c0,0.4-1.7,4.2-4.9,11.4c-0.6,1.4-1.8,2.6-3.3,3.2
	c-1.4,0.8-2.9,1.2-4.5,1.2l-16.1,0l-3.3,7.3l5.8,0l2.6-5.8l16.1,0l-2.6,5.8l8.5,0l9.8-21.8c0.7-1.4,1.9-2.6,3.3-3.2
	c1.4-0.8,2.9-1.2,4.5-1.2l32.2-0.1l-11.8,26.1l8.5,0l9.8-21.8c0.7-1.4,1.9-2.6,3.3-3.2c1.4-0.8,2.9-1.2,4.5-1.2l32.2-0.1l-11.8,26.1
	l8.5,0l6.8-15.2l16.1-0.1l-6.8,15.2l8.5,0l9.8-21.8c0.7-1.4,1.9-2.6,3.3-3.2c1.4-0.8,2.9-1.2,4.5-1.2l26.3,0c3,0,4.4,1,4.2,3.1
	c0,0.4-1.7,4.2-4.9,11.4c-0.6,1.4-1.8,2.6-3.3,3.2c-1.4,0.8-2.9,1.2-4.5,1.2l-16.1,0l-3.3,7.3l5.8,0l2.6-5.8l16.1,0l-1.1,2.5
	l-1.5,3.3l-2.5,5.8l-34.3,0.1l-16,0l-8.5,0l-12.3,0c-0.3,0.6-0.7,1.5-1.3,2.7c-0.5,1.2-2,4.6-2.9,6.5c-0.7,1.4-1.8,2.5-3.2,3.1
	c-1.4,0.8-3,1.2-4.6,1.2l-32.1,0.1l2.6-5.8l21.9,0l3.4-7.7l-18.1,0l-12.3,0c-0.3,0.6-0.7,1.5-1.3,2.7c-0.5,1.2-2,4.6-2.9,6.5
	c-0.7,1.4-1.8,2.5-3.2,3.1c-1.4,0.8-3,1.2-4.6,1.2l-78.7,0.2l2.6-5.8l68.5-0.1l3.4-7.7l-68.4,0.1L73.4,41.8z M211.9,44l4.2-9.4
	l16.1,0l-4.2,9.4L211.9,44z M297.6,97.2l-38,0.1l26.8-59.3c0.6-1.4,1.8-2.6,3.3-3.2c1.4-0.8,2.9-1.2,4.5-1.2l26.3,0
	c3,0,4.4,1,4.3,3.1c0,0.3-2.6,6-7.6,17.2l-16.1,0l6.6-14.5l-5.8,0l-23.5,52.1l5.8,0l9.2-20.3l-3.5,0l2.6-5.8l19.6,0l-3.4,7.6
	L297.6,97.2z M317.7,70.8l1-2.2c0.7-1.4,1.9-2.6,3.3-3.2c1.4-0.8,2.9-1.2,4.5-1.2l16.1,0l3.3-7.3l-21.9,0l2.6-5.8l32.2-0.1
	c3,0,4.4,1,4.2,3.1c0,0.4-3.4,8-10.1,23l8.5,0l17.9-39.8l16.1,0l-17.9,39.8l8.5,0l3.9-8.7c0.7-1.4,1.9-2.6,3.3-3.2
	c1.4-0.8,2.9-1.2,4.5-1.2l16.1,0l3.3-7.3l-21.9,0l2.6-5.8l32.2-0.1c3,0,4.4,1,4.2,3.1c0,0.4-3.4,8-10.1,23l8.5,0l1.6-3.4l13.1-6.7
	l-7-6.7l4.2-9.3l16.1,0L454.3,64l5.8,0l5.9-13.1l16.1,0l-4.2,9.3l-13.2,6.7l7.1,6.7l-1.6,3.4l8.5,0l11.8-26.1l16.1,0L494.9,77l5.8,0
	l11.8-26.1l16.1,0l-15.5,34.3c-0.5,1-1.8,4-3.5,7.5c-0.7,1.4-1.8,2.5-3.2,3.1c-1.4,0.8-3,1.2-4.6,1.2l-196.1,0.4l2.6-5.8l185.9-0.3
	l3.9-8.4l-18.1,0l-16,0l-12.3,0l5.9-13l-5.8,0l-5.9,13l-12.3,0l-16,0L387,82.9l-16,0l-8.5,0l-16,0l-34.2,0.1L317.7,70.8z M411,69.9
	l-5.8,0l-3.3,7.3l5.8,0L411,69.9z M339.9,70l-5.8,0l-3.3,7.3l5.8,0L339.9,70z"/>
<polygon class="st0" points="82.7,20.9 219.1,20.7 216.2,26.5 80.1,26.7 "/>
<path class="st0" d="M403.7,37.4l131.2-0.2l-2.6,5.8l-131.2,0.2L403.7,37.4z M332.7,37.5l37.7-0.1l-2.6,5.8l-37.8,0.1L332.7,37.5z"
	/>
<path class="st1" d="M534,25.7h6.1l-2.5,5.7h-6.1L534,25.7z M521.9,25.7h6.1l-2.5,5.7h-6.1L521.9,25.7z M509.8,25.7h6.1l-2.5,5.7
	h-6.1L509.8,25.7z M497.7,25.7h6.1l-2.5,5.7h-6.1L497.7,25.7z M485.6,25.7h6.1l-2.5,5.7h-6.1L485.6,25.7z M473.5,25.7h6.1l-2.5,5.7
	H471L473.5,25.7z M461.4,25.7h6.1l-2.5,5.7h-6.1L461.4,25.7z M449.3,25.7h6.1l-2.5,5.7h-6.1L449.3,25.7z M437.2,25.7h6.1l-2.5,5.7
	h-6.1L437.2,25.7z M425.1,25.7h6.1l-2.5,5.7h-6.1L425.1,25.7z M413,25.7h6.1l-2.5,5.7h-6.1L413,25.7z M400.9,25.7h6.1l-2.5,5.7h-6.1
	L400.9,25.7z M388.8,25.7h6.1l-2.5,5.7h-6.1L388.8,25.7z M376.7,25.7h6.1l-2.5,5.7h-6.1L376.7,25.7z M530.5,20h6.1l-2.5,5.7H528
	L530.5,20z M518.4,20h6.1l-2.5,5.7h-6.1L518.4,20z M506.3,20h6.1l-2.5,5.7h-6.1L506.3,20z M494.2,20h6.1l-2.5,5.7h-6.1L494.2,20z
	 M482.1,20h6.1l-2.5,5.7h-6.1L482.1,20z M470,20h6.1l-2.5,5.7h-6.1L470,20z M457.9,20h6.1l-2.5,5.7h-6.1L457.9,20z M445.8,20h6.1
	l-2.5,5.7h-6.1L445.8,20z M433.7,20h6.1l-2.5,5.7h-6.1L433.7,20z M421.6,20h6.1l-2.5,5.7h-6.1L421.6,20z M409.5,20h6.1l-2.5,5.7H407
	L409.5,20z M397.4,20h6.1l-2.5,5.7h-6.1L397.4,20z M385.3,20h6.1l-2.6,5.6h-6.1L385.3,20z"/>
<path class="st1" d="M246.9,91.7h6.1l-2.5,5.7h-6.1L246.9,91.7z M234.8,91.7h6.1l-2.5,5.7h-6.1L234.8,91.7z M222.7,91.7h6.1
	l-2.5,5.7h-6.1L222.7,91.7z M210.6,91.7h6.1l-2.5,5.7h-6.1L210.6,91.7z M198.5,91.7h6.1l-2.5,5.7H196L198.5,91.7z M186.4,91.7h6.1
	l-2.5,5.7h-6.1L186.4,91.7z M174.3,91.7h6.1l-2.5,5.7h-6.1L174.3,91.7z M162.2,91.7h6.1l-2.5,5.7h-6.1L162.2,91.7z M150.1,91.7h6.1
	l-2.5,5.7h-6.1L150.1,91.7z M138,91.7h6.1l-2.5,5.7h-6.1L138,91.7z M125.9,91.7h6.1l-2.5,5.7h-6.1L125.9,91.7z M113.8,91.7h6.1
	l-2.6,5.6h-6.1L113.8,91.7z M101.7,91.7h6.1l-2.6,5.6h-6.1L101.7,91.7z M89.6,91.7h6.1l-2.6,5.6h-6.1L89.6,91.7z M77.5,91.7h6.1
	L81,97.3H75L77.5,91.7z M65.4,91.7h6.1l-2.6,5.6h-6.1L65.4,91.7z M53.3,91.7h6.1l-2.5,5.7h-6.1L53.3,91.7z M41.2,91.7h6.1l-2.5,5.7
	h-6.1L41.2,91.7z M29.1,91.7h6.1l-2.5,5.7h-6.1L29.1,91.7z M17,91.7h6.1l-2.6,5.6h-6.1L17,91.7z M243.4,86h6.1l-2.5,5.7h-6.1
	L243.4,86z M231.3,86h6.1l-2.5,5.7h-6.1L231.3,86z M219.2,86h6.1l-2.5,5.7h-6.1L219.2,86z M207.1,86h6.1l-2.5,5.7h-6.1L207.1,86z
	 M195,86h6.1l-2.5,5.7h-6.1L195,86z M182.9,86h6.1l-2.5,5.7h-6.1L182.9,86z M170.8,86h6.1l-2.5,5.7h-6.1L170.8,86z M158.7,86h6.1
	l-2.5,5.7h-6.1L158.7,86z M146.6,86h6.1l-2.5,5.7h-6.1L146.6,86z M134.5,86h6.1l-2.5,5.7H132L134.5,86z M122.4,86h6.1l-2.5,5.7h-6.1
	L122.4,86z M110.3,86h6.1l-2.6,5.6h-6.1L110.3,86z M98.2,86h6.1l-2.6,5.6h-6.1L98.2,86z M86.1,86h6.1l-2.6,5.6h-6.1L86.1,86z M74,86
	h6.1l-2.6,5.6h-6.1L74,86z M61.9,86H68l-2.6,5.6h-6.1L61.9,86z M49.8,86h6.1l-2.6,5.6h-6.1L49.8,86z M37.7,86h6.1l-2.6,5.6h-6.1
	L37.7,86z M25.6,86h6.1l-2.5,5.7h-6.1L25.6,86z M13.5,86h6.1L17,91.7H11L13.5,86z"/>
<path class="st1" d="M376.5,25.7h6.1l-2.5,5.7H374L376.5,25.7z M364.4,25.7h6.1l-2.5,5.7h-6.1L364.4,25.7z M352.3,25.7h6.1l-2.5,5.7
	h-6.1L352.3,25.7z M340.2,25.7h6.1l-2.5,5.7h-6.1L340.2,25.7z M328.1,25.7h6.1l-2.5,5.7h-6.1L328.1,25.7z M316,25.7h6.1l-2.5,5.7
	h-6.1L316,25.7z M303.9,25.7h6.1l-2.5,5.7h-6.1L303.9,25.7z M291.8,25.7h6.1l-2.5,5.7h-6.1L291.8,25.7z M279.7,25.7h6.1l-2.5,5.7
	h-6.1L279.7,25.7z M267.6,25.7h6.1l-2.5,5.7h-6.1L267.6,25.7z M255.5,25.7h6.1l-2.5,5.7H253L255.5,25.7z M243.4,25.7h6.1l-2.5,5.7
	h-6.1L243.4,25.7z M373,20.1h6.1l-2.5,5.7h-6.1L373,20.1z M360.9,20.1h6.1l-2.5,5.7h-6.1L360.9,20.1z M348.8,20.1h6.1l-2.6,5.6h-6.1
	L348.8,20.1z M336.7,20.1h6.1l-2.6,5.6h-6.1L336.7,20.1z M324.6,20.1h6.1l-2.6,5.6h-6.1L324.6,20.1z M312.5,20.1h6.1l-2.6,5.6H310
	L312.5,20.1z M300.4,20.1h6.1l-2.5,5.7h-6.1L300.4,20.1z M288.3,20.1h6.1l-2.5,5.7h-6.1L288.3,20.1z M276.2,20.1h6.1l-2.5,5.7h-6.1
	L276.2,20.1z M264.1,20.1h6.1l-2.5,5.7h-6.1L264.1,20.1z M252,20.1h6.1l-2.5,5.7h-6.1L252,20.1z"/>
<path class="st1" d="M351.9,25.7h6.1l-2.5,5.7h-6.1L351.9,25.7z M339.8,25.7h6.1l-2.5,5.7h-6.1L339.8,25.7z M327.7,25.7h6.1
	l-2.5,5.7h-6.1L327.7,25.7z M315.6,25.7h6.1l-2.5,5.7h-6.1L315.6,25.7z M303.5,25.7h6.1l-2.5,5.7H301L303.5,25.7z M291.4,25.7h6.1
	l-2.6,5.7h-6.1L291.4,25.7z M279.3,25.7h6.1l-2.6,5.7h-6.1L279.3,25.7z M267.2,25.7h6.1l-2.6,5.7h-6.1L267.2,25.7z M255.1,25.7h6.1
	l-2.6,5.6h-6.1L255.1,25.7z M243,25.7h6.1l-2.6,5.6h-6.1L243,25.7z M230.9,25.7h6.1l-2.6,5.6h-6.1L230.9,25.7z M218.8,25.7h6.1
	l-2.6,5.6h-6.1L218.8,25.7z M348.4,20.1h6.1l-2.6,5.6h-6.1L348.4,20.1z M336.3,20.1h6.1l-2.6,5.6h-6.1L336.3,20.1z M324.2,20.1h6.1
	l-2.6,5.6h-6.1L324.2,20.1z M312.1,20.1h6.1l-2.6,5.6h-6.1L312.1,20.1z M300,20.1h6.1l-2.6,5.6h-6.1L300,20.1z M287.9,20.1h6.1
	l-2.6,5.6h-6.1L287.9,20.1z M275.8,20.1h6.1l-2.5,5.7h-6.1L275.8,20.1z M263.7,20.1h6.1l-2.5,5.7h-6.1L263.7,20.1z M251.6,20.1h6.1
	l-2.5,5.7h-6.1L251.6,20.1z M239.5,20.1h6.1l-2.5,5.7H237L239.5,20.1z M227.4,20.1h6.1l-2.5,5.7h-6.1L227.4,20.1z"/>
</svg>
