<svg id="Layer_1" data-name="Layer 1" xmlns="http://www.w3.org/2000/svg" viewBox="0 0 1193.55 316.96"><defs><style>.cls-1,.cls-2{fill:#fff;}.cls-2{font-size:172.13px;font-family:Comfortaa-Regular, Comfortaa;letter-spacing:-0.09em;}.cls-3{letter-spacing:-0.02em;}.cls-4{letter-spacing:-0.06em;}.cls-5{letter-spacing:-0.08em;}.cls-6{letter-spacing:-0.06em;}.cls-7{letter-spacing:-0.05em;}.cls-8{letter-spacing:-0.07em;}.cls-9{letter-spacing:-0.07em;}.cls-10{letter-spacing:-0.03em;}</style></defs><title>lyrachrome</title><path class="cls-1" d="M162.57,213.57A87,87,0,0,1,172.3,387a88.22,88.22,0,0,1-9,.54h-.73a87.8,87.8,0,0,1-13.73-1.08A87,87,0,0,1,152.1,214.2a88.05,88.05,0,0,1,9.37-.62h1.1m0-9.16h-1.33a97.64,97.64,0,0,0-10.23.68,96.15,96.15,0,0,0-3.63,190.42,97.32,97.32,0,0,0,15.17,1.19h.8a97.81,97.81,0,0,0,10-.59,96.15,96.15,0,0,0-10.74-191.7Z" transform="translate(-66.4 -184.78)"/><text class="cls-2" transform="translate(228.6 172.63)">l<tspan class="cls-3" x="32.53" y="0">y</tspan><tspan class="cls-4" x="123.07" y="0">r</tspan><tspan class="cls-5" x="191.16" y="0">i</tspan><tspan class="cls-6" x="226.61" y="0">c</tspan><tspan class="cls-7" x="319.22" y="0">h</tspan><tspan class="cls-5" x="427.62" y="0">r</tspan><tspan class="cls-8" x="492.16" y="0">o</tspan><tspan class="cls-9" x="596.47" y="0">m</tspan><tspan class="cls-10" x="747.77" y="0">e</tspan></text><path class="cls-1" d="M178.69,273.18l-4.43,112.28-18.45.14-6.39-112.2,29.28-.23m0-8.88h-.07l-29.28.23a8.88,8.88,0,0,0-8.8,9.38l6.39,112.2a8.88,8.88,0,0,0,8.86,8.37h.07l18.45-.14a8.88,8.88,0,0,0,8.8-8.53l4.43-112.28a8.88,8.88,0,0,0-8.87-9.23Zm0,17.76h0Z" transform="translate(-66.4 -184.78)"/><path d="M149.32,279.52a4.44,4.44,0,0,1-4.06-2.65c-4.21-9.57-3.61-20.23,1.71-30,.29-.54.61-1.1.94-1.69,2-3.63,4.33-7.74,5.36-13.32,1.84-9.91-1-21.32-8.73-34.87l-.61-1.07a4.44,4.44,0,0,1,5.61-6.3c1.08.47,2.07.94,3,1.42a64,64,0,0,1,32.24,37.68c.41,1.27.77,2.54,1.08,3.76a64.55,64.55,0,0,1-4.49,44.36,4.44,4.44,0,0,1-4,2.49Z" transform="translate(-66.4 -184.78)"/><path class="cls-1" d="M147.76,193.66c.94.41,1.87.85,2.8,1.32a59.8,59.8,0,0,1,21,17.55,59.85,59.85,0,0,1,9,17.53q.56,1.74,1,3.5a60,60,0,0,1-4.18,41.31l-28.1.22c-3.36-7.62-3.55-16.73,1.55-26.12,2.13-3.93,5.42-9,6.76-16.33,1.65-8.86.42-20.91-9.23-37.87l-.64-1.11m0-8.88a8.88,8.88,0,0,0-7.68,13.34l.58,1c7.18,12.62,9.87,23,8.23,31.88-.9,4.87-3,8.64-4.87,12-.34.6-.66,1.18-1,1.74-6,11-6.65,23.08-1.87,33.93a8.88,8.88,0,0,0,8.12,5.3h.07l28.1-.22a8.88,8.88,0,0,0,7.91-5,69,69,0,0,0,4.81-47.42c-.33-1.31-.72-2.66-1.15-4A68.54,68.54,0,0,0,154.54,187c-1-.5-2.06-1-3.22-1.51a8.86,8.86,0,0,0-3.56-.75Z" transform="translate(-66.4 -184.78)"/></svg>