<?xml version="1.0" encoding="utf-8"?>
<!-- Generator: Adobe Illustrator 22.0.0, SVG Export Plug-In . SVG Version: 6.00 Build 0)  -->
<svg version="1.1" id="Layer_1" xmlns="http://www.w3.org/2000/svg" xmlns:xlink="http://www.w3.org/1999/xlink" x="0px" y="0px"
	 viewBox="0 0 1920 466.9" style="enable-background:new 0 0 1920 466.9;" xml:space="preserve">
<style type="text/css">
	.st0{fill:#FFFFFF;}
	.st1{fill:url(#SVGID_1_);stroke:#FFFFFF;stroke-width:16.0953;stroke-miterlimit:10;}
</style>
<g>
	<rect x="-28" y="1" width="1973" height="474"/>
</g>
<path class="st0" d="M474.1,292.7c-1.9-1.9-2.8-4.1-2.8-6.8V113.3c0-2.6,0.9-4.9,2.8-6.8c1.9-1.9,4.1-2.8,6.8-2.8
	c2.8,0,5.1,0.9,6.9,2.7c1.8,1.8,2.7,4.1,2.7,6.9v164h77c2.8,0,5.1,0.9,6.9,2.6c1.8,1.7,2.7,3.9,2.7,6.5c0,2.6-0.9,4.8-2.7,6.5
	c-1.8,1.7-4.1,2.6-6.9,2.6h-86.6C478.2,295.5,476,294.5,474.1,292.7z"/>
<path class="st0" d="M682.6,169c0,1.5-0.3,2.9-1,4.4l-79.5,174.8c-1.5,3.8-3.8,5.6-7.1,5.6c-1.6,0-3.1-0.3-4.4-1
	c-3.8-1.5-5.6-3.9-5.6-7.4c0-1.5,0.3-2.9,1-4.4l24.3-53.8v-0.2l-54.8-113.4c-0.7-1.3-1-2.8-1-4.4c0-3.4,1.8-5.9,5.4-7.4
	c1.3-0.7,2.8-1,4.4-1c3.4,0,5.9,1.7,7.4,5.2L619.5,267l45.7-100.7c1.6-3.6,4.1-5.4,7.4-5.4c1.5,0,2.9,0.3,4.4,1
	C680.7,163.4,682.6,165.8,682.6,169z"/>
<path class="st0" d="M778,162.4c4,1.8,6,4.3,6,7.6c0,1-0.1,1.7-0.2,2.2c-0.7,2.3-1.7,3.8-3.1,4.7c-1.4,0.8-3.3,1.2-5.8,1.2
	c-1.5,0-4-0.2-7.6-0.5c-1.3-0.2-3.3-0.2-5.9-0.2c-12.3,0-22.3,3.3-30.1,9.8c-7.8,6.5-11.7,15.1-11.7,25.5v73.4
	c0,2.9-0.8,5.2-2.5,6.9c-1.6,1.6-3.9,2.5-6.9,2.5s-5.2-0.8-6.9-2.5c-1.6-1.6-2.5-3.9-2.5-6.9V170.5c0-2.9,0.8-5.2,2.5-6.9
	c1.6-1.6,3.9-2.5,6.9-2.5s5.2,0.8,6.9,2.5c1.6,1.6,2.5,3.9,2.5,6.9v10.8c4.7-6.9,10.8-12.2,18.2-16c7.4-3.8,15.3-5.6,23.8-5.6
	C768.5,159.7,774,160.6,778,162.4z"/>
<path class="st0" d="M804.8,292.8c-1.8-1.8-2.7-4.1-2.7-6.9V170.7c0-2.8,0.9-5.1,2.7-6.9c1.8-1.8,4.1-2.7,6.9-2.7
	c2.8,0,5,0.9,6.8,2.7c1.7,1.8,2.6,4.1,2.6,6.9v115.2c0,2.8-0.9,5.1-2.6,6.9c-1.7,1.8-4,2.7-6.8,2.7
	C808.8,295.5,806.6,294.6,804.8,292.8z"/>
<path class="st0" d="M874.2,287.7c-10.2-6-18.1-14.2-23.9-24.6c-5.8-10.4-8.7-22-8.7-34.7c0-13.1,2.8-24.8,8.3-35.2
	c5.6-10.4,13.3-18.5,23.1-24.4c9.8-5.9,20.9-8.8,33.1-8.8c20.5,0,37.1,7.9,49.8,23.6c1.3,1.5,2,3.2,2,5.2c0,2.6-1.4,4.9-4.2,6.9
	c-1.5,1-3,1.5-4.7,1.5c-2.5,0-4.8-1.2-7.1-3.7c-4.9-5.4-10.3-9.5-16.2-12.2c-5.9-2.7-12.4-4.1-19.6-4.1c-9,0-17,2.2-24.1,6.5
	c-7,4.3-12.5,10.4-16.3,18.3c-3.8,7.9-5.8,16.7-5.8,26.5c0,9.7,2,18.4,6.1,26.1c4.1,7.8,9.8,13.9,17.2,18.3
	c7.4,4.4,15.8,6.6,25.3,6.6c13.1,0,23.7-3.5,31.7-10.6c2.1-1.8,4.3-2.7,6.6-2.7c2,0,3.8,0.7,5.4,2c2.3,2,3.4,4.2,3.4,6.6
	c0,2.1-0.8,3.9-2.5,5.4c-11.8,11-26.7,16.5-44.7,16.5C895.8,296.7,884.4,293.7,874.2,287.7z"/>
<path class="st0" d="M1075.6,167.1c9.2,4.9,16.5,12.1,21.7,21.5c5.2,9.4,7.9,20.7,7.9,33.8v63.8c0,2.6-0.9,4.8-2.7,6.6
	c-1.8,1.8-4,2.7-6.6,2.7c-2.8,0-5.1-0.9-6.9-2.7c-1.8-1.8-2.7-4-2.7-6.6v-63.8c0-14.6-4.1-25.7-12.2-33.3
	c-8.1-7.6-18.7-11.4-31.8-11.4c-8,0-15.3,1.6-21.7,4.7c-6.5,3.1-11.6,7.4-15.3,12.9c-3.8,5.5-5.6,11.6-5.6,18.3v72.7
	c0,2.8-0.9,5-2.6,6.8s-4,2.6-6.8,2.6c-2.8,0-5.1-0.9-6.9-2.6c-1.8-1.7-2.7-4-2.7-6.8V113.3c0-2.8,0.9-5.1,2.7-6.9
	c1.8-1.8,4.1-2.7,6.9-2.7c2.8,0,5,0.9,6.8,2.7c1.7,1.8,2.6,4.1,2.6,6.9v65.8c5.4-6.1,11.9-10.8,19.6-14.2c7.7-3.4,16-5.2,25-5.2
	C1055.9,159.7,1066.4,162.2,1075.6,167.1z"/>
<path class="st0" d="M1207.5,162.4c4,1.8,6,4.3,6,7.6c0,1-0.1,1.7-0.2,2.2c-0.7,2.3-1.7,3.8-3.1,4.7c-1.4,0.8-3.3,1.2-5.8,1.2
	c-1.5,0-4-0.2-7.6-0.5c-1.3-0.2-3.3-0.2-5.9-0.2c-12.3,0-22.3,3.3-30.1,9.8c-7.8,6.5-11.7,15.1-11.7,25.5v73.4
	c0,2.9-0.8,5.2-2.5,6.9c-1.6,1.6-3.9,2.5-6.9,2.5c-2.9,0-5.2-0.8-6.9-2.5c-1.6-1.6-2.5-3.9-2.5-6.9V170.5c0-2.9,0.8-5.2,2.5-6.9
	c1.6-1.6,3.9-2.5,6.9-2.5c2.9,0,5.2,0.8,6.9,2.5c1.6,1.6,2.5,3.9,2.5,6.9v10.8c4.7-6.9,10.8-12.2,18.2-16c7.4-3.8,15.3-5.6,23.8-5.6
	C1198,159.7,1203.4,160.6,1207.5,162.4z"/>
<path class="st0" d="M1248.8,287.9c-10.4-5.9-18.5-14-24.4-24.4c-5.9-10.4-8.8-22.1-8.8-35c0-12.9,2.9-24.6,8.8-35.1
	c5.9-10.5,14-18.7,24.4-24.6c10.4-5.9,22.1-8.8,35-8.8c12.9,0,24.6,2.9,34.9,8.8c10.3,5.9,18.5,14.1,24.4,24.6c6,10.5,9,22.2,9,35.1
	c0,12.9-2.9,24.6-8.8,35c-5.9,10.4-14,18.5-24.4,24.4c-10.4,5.9-22.1,8.8-35,8.8C1270.8,296.7,1259.1,293.8,1248.8,287.9z
	 M1309.3,272.9c7.5-4.4,13.4-10.5,17.7-18.3c4.3-7.8,6.4-16.5,6.4-26.1c0-9.8-2.1-18.6-6.4-26.4c-4.3-7.8-10.2-13.9-17.7-18.3
	c-7.5-4.4-16-6.6-25.5-6.6c-9.3,0-17.8,2.2-25.4,6.6s-13.6,10.5-17.9,18.3c-4.3,7.8-6.5,16.6-6.5,26.4c0,9.7,2.2,18.4,6.5,26.1
	c4.3,7.8,10.3,13.9,17.9,18.3c7.6,4.4,16.1,6.6,25.4,6.6C1293.2,279.5,1301.7,277.3,1309.3,272.9z"/>
<path class="st0" d="M1539.4,166.6c7.4,4.6,13.3,11.1,17.4,19.5c4.2,8.4,6.3,18.2,6.3,29.3v70.7c0,2.8-0.9,5-2.6,6.8s-4,2.6-6.8,2.6
	c-2.8,0-5.1-0.9-6.9-2.6c-1.8-1.7-2.7-4-2.7-6.8v-70.7c0-11.6-3-20.8-9-27.6c-6-6.8-13.8-10.2-23.4-10.2c-10.3,0-18.7,3.4-25,10.3
	c-6.4,6.9-9.5,15.9-9.3,27v0.5v70.7c0,2.8-0.9,5-2.6,6.8s-4,2.6-6.8,2.6c-2.8,0-5.1-0.9-6.9-2.6c-1.8-1.7-2.7-4-2.7-6.8v-70.7
	c0-11.6-3-20.8-9-27.6c-6-6.8-13.8-10.2-23.4-10.2c-10.2,0-18.5,3.4-25,10.1c-6.5,6.7-9.8,15.3-9.8,25.8v72.7c0,2.8-0.9,5-2.6,6.8
	s-4,2.6-6.8,2.6c-2.8,0-5.1-0.9-6.9-2.6c-1.8-1.7-2.7-4-2.7-6.8V170.7c0-2.8,0.9-5.1,2.7-6.9c1.8-1.8,4.1-2.7,6.9-2.7
	c2.8,0,5,0.9,6.8,2.7c1.7,1.8,2.6,4.1,2.6,6.9v5.4c4.6-5.2,10-9.3,16.3-12.2c6.3-2.9,13.1-4.3,20.5-4.3c9,0,17.1,2,24.3,6.1
	c7.2,4.1,12.9,9.8,17.2,17.2c4.7-7.4,10.9-13.1,18.5-17.2c7.6-4.1,16.2-6.1,25.7-6.1C1523.4,159.7,1531.9,162,1539.4,166.6z"/>
<path class="st0" d="M1681.5,168.4c9.3,5.6,16.6,13.5,21.7,23.4c5.2,10,7.7,21.4,7.7,34.1c0,2.6-0.8,4.7-2.5,6.3
	c-1.6,1.6-3.8,2.3-6.4,2.3h-99.2c1.3,13.4,6.5,24.3,15.7,32.7c9.2,8.3,20.6,12.5,34.4,12.5c5.9,0,11.8-1,17.8-3.1
	c6-2,10.8-4.6,14.4-7.7c2.1-1.6,4.3-2.5,6.6-2.5c1.8,0,3.6,0.7,5.4,2c2.1,2,3.2,4.2,3.2,6.6c0,2.1-0.9,4-2.7,5.6
	c-5.4,4.6-12.3,8.4-20.6,11.4c-8.3,3-16.4,4.5-24.1,4.5c-13.1,0-24.8-2.9-35.1-8.7c-10.3-5.8-18.4-13.9-24.2-24.3
	c-5.8-10.4-8.7-22.1-8.7-35.2c0-13.3,2.7-25.1,8.2-35.5c5.5-10.4,13.1-18.5,22.8-24.3c9.7-5.8,20.8-8.7,33.3-8.7
	C1661.4,159.9,1672.2,162.8,1681.5,168.4z M1618.4,188.4c-8.2,7.7-13.2,17.8-15,30.4h89.9c-1.3-12.6-5.9-22.7-13.7-30.4
	c-7.9-7.7-17.9-11.5-30.2-11.5C1636.9,176.9,1626.6,180.7,1618.4,188.4z"/>
<g>
	<path class="st0" d="M808.7,109c1.8-0.3,3.6-0.3,5.3,0.1l0.2,0c1.7,0.4,3.4,1.2,4.9,2.3c1.5,1.1,2.9,2.5,3.9,4.2
		c1,1.6,1.6,3.3,1.8,5l0,0.1c0.5,3.7-0.6,7.3-3,10.1c-2.2,2.6-5.4,4.2-8.8,4.6c-0.6,0.1-1.1,0.1-1.6,0.1c-1.1,0-2.2-0.1-3.2-0.4
		c-1.5-0.4-3-1-4.4-2l-0.1-0.1c-1.4-1-2.6-2.3-3.5-3.7c-0.9-1.4-1.5-2.9-1.8-4.5c-0.7-3.4-0.1-6.9,1.6-9.8
		C801.9,111.8,805.1,109.6,808.7,109z"/>
</g>
<linearGradient id="SVGID_1_" gradientUnits="userSpaceOnUse" x1="172.3998" y1="279.3632" x2="382.7061" y2="157.9429">
	<stop  offset="0" style="stop-color:#FFFFFF"/>
	<stop  offset="0.2144" style="stop-color:#D33F74"/>
	<stop  offset="0.8628" style="stop-color:#00B1E4"/>
</linearGradient>
<circle class="st1" cx="277.6" cy="218.7" r="121.4"/>
<g>
	<g>
		<path class="st0" d="M220.1,169.7c-4.8,0-8.6-3.9-8.6-8.6c0-4.8,3.9-8.6,8.6-8.6c4.8,0,8.6,3.9,8.6,8.6
			C228.7,165.8,224.8,169.7,220.1,169.7z"/>
		<path class="st0" d="M220.1,154.6c3.6,0,6.5,2.9,6.5,6.5c0,3.6-2.9,6.5-6.5,6.5c-3.6,0-6.5-2.9-6.5-6.5
			C213.6,157.5,216.5,154.6,220.1,154.6 M220.1,150.3c-5.9,0-10.8,4.8-10.8,10.8c0,5.9,4.8,10.8,10.8,10.8s10.8-4.8,10.8-10.8
			C230.8,155.1,226,150.3,220.1,150.3L220.1,150.3z"/>
	</g>
	<g>
		<path class="st0" d="M258.4,169.7c-4.8,0-8.6-3.9-8.6-8.6c0-4.8,3.9-8.6,8.6-8.6c4.8,0,8.6,3.9,8.6,8.6
			C267,165.8,263.1,169.7,258.4,169.7z"/>
		<path class="st0" d="M258.4,154.6c3.6,0,6.5,2.9,6.5,6.5c0,3.6-2.9,6.5-6.5,6.5c-3.6,0-6.5-2.9-6.5-6.5
			C251.9,157.5,254.8,154.6,258.4,154.6 M258.4,150.3c-5.9,0-10.8,4.8-10.8,10.8c0,5.9,4.8,10.8,10.8,10.8c5.9,0,10.8-4.8,10.8-10.8
			C269.2,155.1,264.3,150.3,258.4,150.3L258.4,150.3z"/>
	</g>
	<g>
		<path class="st0" d="M296.7,169.7c-4.8,0-8.6-3.9-8.6-8.6c0-4.8,3.9-8.6,8.6-8.6c4.8,0,8.6,3.9,8.6,8.6
			C305.3,165.8,301.5,169.7,296.7,169.7z"/>
		<path class="st0" d="M296.7,154.6c3.6,0,6.5,2.9,6.5,6.5c0,3.6-2.9,6.5-6.5,6.5c-3.6,0-6.5-2.9-6.5-6.5
			C290.2,157.5,293.1,154.6,296.7,154.6 M296.7,150.3c-5.9,0-10.8,4.8-10.8,10.8c0,5.9,4.8,10.8,10.8,10.8c5.9,0,10.8-4.8,10.8-10.8
			C307.5,155.1,302.7,150.3,296.7,150.3L296.7,150.3z"/>
	</g>
	<g>
		<path class="st0" d="M335,169.7c-4.8,0-8.6-3.9-8.6-8.6c0-4.8,3.9-8.6,8.6-8.6c4.8,0,8.6,3.9,8.6,8.6
			C343.7,165.8,339.8,169.7,335,169.7z"/>
		<path class="st0" d="M335,154.6c3.6,0,6.5,2.9,6.5,6.5c0,3.6-2.9,6.5-6.5,6.5c-3.6,0-6.5-2.9-6.5-6.5
			C328.6,157.5,331.5,154.6,335,154.6 M335,150.3c-5.9,0-10.8,4.8-10.8,10.8c0,5.9,4.8,10.8,10.8,10.8c5.9,0,10.8-4.8,10.8-10.8
			C345.8,155.1,341,150.3,335,150.3L335,150.3z"/>
	</g>
	<g>
		<path class="st0" d="M220.1,208.1c-4.8,0-8.6-3.9-8.6-8.6c0-4.8,3.9-8.6,8.6-8.6c4.8,0,8.6,3.9,8.6,8.6
			C228.7,204.2,224.8,208.1,220.1,208.1z"/>
		<path class="st0" d="M220.1,193c3.6,0,6.5,2.9,6.5,6.5c0,3.6-2.9,6.5-6.5,6.5c-3.6,0-6.5-2.9-6.5-6.5
			C213.6,195.9,216.5,193,220.1,193 M220.1,188.7c-5.9,0-10.8,4.8-10.8,10.8c0,5.9,4.8,10.8,10.8,10.8s10.8-4.8,10.8-10.8
			C230.8,193.5,226,188.7,220.1,188.7L220.1,188.7z"/>
	</g>
	<g>
		<path class="st0" d="M258.4,208.1c-4.8,0-8.6-3.9-8.6-8.6c0-4.8,3.9-8.6,8.6-8.6c4.8,0,8.6,3.9,8.6,8.6
			C267,204.2,263.1,208.1,258.4,208.1z"/>
		<path class="st0" d="M258.4,193c3.6,0,6.5,2.9,6.5,6.5c0,3.6-2.9,6.5-6.5,6.5c-3.6,0-6.5-2.9-6.5-6.5
			C251.9,195.9,254.8,193,258.4,193 M258.4,188.7c-5.9,0-10.8,4.8-10.8,10.8c0,5.9,4.8,10.8,10.8,10.8c5.9,0,10.8-4.8,10.8-10.8
			C269.2,193.5,264.3,188.7,258.4,188.7L258.4,188.7z"/>
	</g>
	<g>
		<path class="st0" d="M296.7,208.1c-4.8,0-8.6-3.9-8.6-8.6c0-4.8,3.9-8.6,8.6-8.6c4.8,0,8.6,3.9,8.6,8.6
			C305.3,204.2,301.5,208.1,296.7,208.1z"/>
		<path class="st0" d="M296.7,193c3.6,0,6.5,2.9,6.5,6.5c0,3.6-2.9,6.5-6.5,6.5c-3.6,0-6.5-2.9-6.5-6.5
			C290.2,195.9,293.1,193,296.7,193 M296.7,188.7c-5.9,0-10.8,4.8-10.8,10.8c0,5.9,4.8,10.8,10.8,10.8c5.9,0,10.8-4.8,10.8-10.8
			C307.5,193.5,302.7,188.7,296.7,188.7L296.7,188.7z"/>
	</g>
	<g>
		<path class="st0" d="M335,208.1c-4.8,0-8.6-3.9-8.6-8.6c0-4.8,3.9-8.6,8.6-8.6c4.8,0,8.6,3.9,8.6,8.6
			C343.7,204.2,339.8,208.1,335,208.1z"/>
		<path class="st0" d="M335,193c3.6,0,6.5,2.9,6.5,6.5c0,3.6-2.9,6.5-6.5,6.5c-3.6,0-6.5-2.9-6.5-6.5C328.6,195.9,331.5,193,335,193
			 M335,188.7c-5.9,0-10.8,4.8-10.8,10.8c0,5.9,4.8,10.8,10.8,10.8c5.9,0,10.8-4.8,10.8-10.8C345.8,193.5,341,188.7,335,188.7
			L335,188.7z"/>
	</g>
	<g>
		<path class="st0" d="M220.1,246.5c-4.8,0-8.6-3.9-8.6-8.6c0-4.8,3.9-8.6,8.6-8.6c4.8,0,8.6,3.9,8.6,8.6
			C228.7,242.6,224.8,246.5,220.1,246.5z"/>
		<path class="st0" d="M220.1,231.4c3.6,0,6.5,2.9,6.5,6.5c0,3.6-2.9,6.5-6.5,6.5c-3.6,0-6.5-2.9-6.5-6.5
			C213.6,234.3,216.5,231.4,220.1,231.4 M220.1,227.1c-5.9,0-10.8,4.8-10.8,10.8c0,5.9,4.8,10.8,10.8,10.8s10.8-4.8,10.8-10.8
			C230.8,231.9,226,227.1,220.1,227.1L220.1,227.1z"/>
	</g>
	<g>
		<path class="st0" d="M258.4,246.5c-4.8,0-8.6-3.9-8.6-8.6c0-4.8,3.9-8.6,8.6-8.6c4.8,0,8.6,3.9,8.6,8.6
			C267,242.6,263.1,246.5,258.4,246.5z"/>
		<path class="st0" d="M258.4,231.4c3.6,0,6.5,2.9,6.5,6.5c0,3.6-2.9,6.5-6.5,6.5c-3.6,0-6.5-2.9-6.5-6.5
			C251.9,234.3,254.8,231.4,258.4,231.4 M258.4,227.1c-5.9,0-10.8,4.8-10.8,10.8c0,5.9,4.8,10.8,10.8,10.8c5.9,0,10.8-4.8,10.8-10.8
			C269.2,231.9,264.3,227.1,258.4,227.1L258.4,227.1z"/>
	</g>
	<g>
		<path class="st0" d="M296.7,246.5c-4.8,0-8.6-3.9-8.6-8.6c0-4.8,3.9-8.6,8.6-8.6c4.8,0,8.6,3.9,8.6,8.6
			C305.3,242.6,301.5,246.5,296.7,246.5z"/>
		<path class="st0" d="M296.7,231.4c3.6,0,6.5,2.9,6.5,6.5c0,3.6-2.9,6.5-6.5,6.5c-3.6,0-6.5-2.9-6.5-6.5
			C290.2,234.3,293.1,231.4,296.7,231.4 M296.7,227.1c-5.9,0-10.8,4.8-10.8,10.8c0,5.9,4.8,10.8,10.8,10.8c5.9,0,10.8-4.8,10.8-10.8
			C307.5,231.9,302.7,227.1,296.7,227.1L296.7,227.1z"/>
	</g>
	<g>
		<path class="st0" d="M335,246.5c-4.8,0-8.6-3.9-8.6-8.6c0-4.8,3.9-8.6,8.6-8.6c4.8,0,8.6,3.9,8.6,8.6
			C343.7,242.6,339.8,246.5,335,246.5z"/>
		<path class="st0" d="M335,231.4c3.6,0,6.5,2.9,6.5,6.5c0,3.6-2.9,6.5-6.5,6.5c-3.6,0-6.5-2.9-6.5-6.5
			C328.6,234.3,331.5,231.4,335,231.4 M335,227.1c-5.9,0-10.8,4.8-10.8,10.8c0,5.9,4.8,10.8,10.8,10.8c5.9,0,10.8-4.8,10.8-10.8
			C345.8,231.9,341,227.1,335,227.1L335,227.1z"/>
	</g>
	<g>
		<path class="st0" d="M220.1,284.9c-4.8,0-8.6-3.9-8.6-8.6s3.9-8.6,8.6-8.6c4.8,0,8.6,3.9,8.6,8.6S224.8,284.9,220.1,284.9z"/>
		<path class="st0" d="M220.1,269.8c3.6,0,6.5,2.9,6.5,6.5c0,3.6-2.9,6.5-6.5,6.5c-3.6,0-6.5-2.9-6.5-6.5
			C213.6,272.7,216.5,269.8,220.1,269.8 M220.1,265.5c-5.9,0-10.8,4.8-10.8,10.8c0,5.9,4.8,10.8,10.8,10.8s10.8-4.8,10.8-10.8
			C230.8,270.3,226,265.5,220.1,265.5L220.1,265.5z"/>
	</g>
	<g>
		<path class="st0" d="M258.4,284.9c-4.8,0-8.6-3.9-8.6-8.6s3.9-8.6,8.6-8.6c4.8,0,8.6,3.9,8.6,8.6S263.1,284.9,258.4,284.9z"/>
		<path class="st0" d="M258.4,269.8c3.6,0,6.5,2.9,6.5,6.5c0,3.6-2.9,6.5-6.5,6.5c-3.6,0-6.5-2.9-6.5-6.5
			C251.9,272.7,254.8,269.8,258.4,269.8 M258.4,265.5c-5.9,0-10.8,4.8-10.8,10.8c0,5.9,4.8,10.8,10.8,10.8c5.9,0,10.8-4.8,10.8-10.8
			C269.2,270.3,264.3,265.5,258.4,265.5L258.4,265.5z"/>
	</g>
	<g>
		<path class="st0" d="M296.7,284.9c-4.8,0-8.6-3.9-8.6-8.6s3.9-8.6,8.6-8.6c4.8,0,8.6,3.9,8.6,8.6S301.5,284.9,296.7,284.9z"/>
		<path class="st0" d="M296.7,269.8c3.6,0,6.5,2.9,6.5,6.5c0,3.6-2.9,6.5-6.5,6.5c-3.6,0-6.5-2.9-6.5-6.5
			C290.2,272.7,293.1,269.8,296.7,269.8 M296.7,265.5c-5.9,0-10.8,4.8-10.8,10.8c0,5.9,4.8,10.8,10.8,10.8c5.9,0,10.8-4.8,10.8-10.8
			C307.5,270.3,302.7,265.5,296.7,265.5L296.7,265.5z"/>
	</g>
	<g>
		<path class="st0" d="M335,284.9c-4.8,0-8.6-3.9-8.6-8.6s3.9-8.6,8.6-8.6c4.8,0,8.6,3.9,8.6,8.6S339.8,284.9,335,284.9z"/>
		<path class="st0" d="M335,269.8c3.6,0,6.5,2.9,6.5,6.5c0,3.6-2.9,6.5-6.5,6.5c-3.6,0-6.5-2.9-6.5-6.5
			C328.6,272.7,331.5,269.8,335,269.8 M335,265.5c-5.9,0-10.8,4.8-10.8,10.8c0,5.9,4.8,10.8,10.8,10.8c5.9,0,10.8-4.8,10.8-10.8
			C345.8,270.3,341,265.5,335,265.5L335,265.5z"/>
	</g>
</g>
</svg>
