<?xml version="1.0" encoding="utf-8"?>
<!-- Generator: Adobe Illustrator 22.0.0, SVG Export Plug-In . SVG Version: 6.00 Build 0)  -->
<svg version="1.1" id="Layer_1" xmlns="http://www.w3.org/2000/svg" xmlns:xlink="http://www.w3.org/1999/xlink" x="0px" y="0px"
	 viewBox="0 0 2420.4 477.3" style="enable-background:new 0 0 2420.4 477.3;" xml:space="preserve">
<style type="text/css">
	.st0{fill:#FFFFFF;}
	.st1{fill:none;stroke:url(#SVGID_1_);stroke-width:19.3144;stroke-miterlimit:10;}
	.st2{opacity:0.6;fill:#FFFFFF;enable-background:new    ;}
	.st3{opacity:0.35;fill:#FFFFFF;enable-background:new    ;}
	.st4{opacity:0.15;fill:#FFFFFF;enable-background:new    ;}
</style>
<path class="st0" d="M473.7,334c-2.3-2.3-3.4-4.9-3.4-8.2V118.7c0-3.1,1.1-5.9,3.4-8.2c2.3-2.3,4.9-3.4,8.2-3.4
	c3.4,0,6.1,1.1,8.3,3.2c2.2,2.2,3.2,4.9,3.2,8.3v196.8h92.4c3.4,0,6.1,1.1,8.3,3.1s3.2,4.7,3.2,7.8c0,3.1-1.1,5.8-3.2,7.8
	s-4.9,3.1-8.3,3.1h-104C478.6,337.4,475.9,336.2,473.7,334z"/>
<path class="st0" d="M723.9,185.6c0,1.8-0.4,3.5-1.2,5.3l-95.4,209.8c-1.8,4.6-4.6,6.7-8.5,6.7c-1.9,0-3.7-0.4-5.3-1.2
	c-4.6-1.8-6.7-4.7-6.7-8.9c0-1.8,0.4-3.5,1.2-5.3l29.2-64.6v-0.2l-65.8-136.1c-0.8-1.6-1.2-3.4-1.2-5.3c0-4.1,2.2-7.1,6.5-8.9
	c1.6-0.8,3.4-1.2,5.3-1.2c4.1,0,7.1,2,8.9,6.2l57.4,121.2L703,182.3c1.9-4.3,4.9-6.5,8.9-6.5c1.8,0,3.5,0.4,5.3,1.2
	C721.6,178.9,723.9,181.7,723.9,185.6z"/>
<path class="st0" d="M838.3,177.7c4.8,2.2,7.2,5.2,7.2,9.1c0,1.2-0.1,2-0.2,2.6c-0.8,2.8-2,4.6-3.7,5.6s-4,1.4-7,1.4
	c-1.8,0-4.8-0.2-9.1-0.6c-1.6-0.2-4-0.2-7.1-0.2c-14.8,0-26.8,4-36.1,11.8s-14,18.1-14,30.6v88.1c0,3.5-1,6.2-3,8.3
	c-1.9,1.9-4.7,3-8.3,3s-6.2-1-8.3-3c-1.9-1.9-3-4.7-3-8.3V187.4c0-3.5,1-6.2,3-8.3c1.9-1.9,4.7-3,8.3-3s6.2,1,8.3,3
	c1.9,1.9,3,4.7,3,8.3v13c5.6-8.3,13-14.6,21.8-19.2c8.9-4.6,18.4-6.7,28.6-6.7C826.9,174.4,833.5,175.5,838.3,177.7z"/>
<path class="st0" d="M870.5,334.1c-2.2-2.2-3.2-4.9-3.2-8.3V187.6c0-3.4,1.1-6.1,3.2-8.3c2.2-2.2,4.9-3.2,8.3-3.2
	c3.4,0,6,1.1,8.2,3.2c2,2.2,3.1,4.9,3.1,8.3v138.2c0,3.4-1.1,6.1-3.1,8.3c-2,2.2-4.8,3.2-8.2,3.2
	C875.3,337.4,872.7,336.3,870.5,334.1z"/>
<path class="st0" d="M953.8,328c-12.2-7.2-21.7-17-28.7-29.5s-10.4-26.4-10.4-41.6c0-15.7,3.4-29.8,10-42.2
	c6.7-12.5,16-22.2,27.7-29.3c11.8-7.1,25.1-10.6,39.7-10.6c24.6,0,44.5,9.5,59.8,28.3c1.6,1.8,2.4,3.8,2.4,6.2c0,3.1-1.7,5.9-5,8.3
	c-1.8,1.2-3.6,1.8-5.6,1.8c-3,0-5.8-1.4-8.5-4.4c-5.9-6.5-12.4-11.4-19.4-14.6c-7.1-3.2-14.9-4.9-23.5-4.9
	c-10.8,0-20.4,2.6-28.9,7.8c-8.4,5.2-15,12.5-19.6,22s-7,20-7,31.8c0,11.6,2.4,22.1,7.3,31.3c4.9,9.4,11.8,16.7,20.6,22
	c8.9,5.3,19,7.9,30.4,7.9c15.7,0,28.4-4.2,38-12.7c2.5-2.2,5.2-3.2,7.9-3.2c2.4,0,4.6,0.8,6.5,2.4c2.8,2.4,4.1,5,4.1,7.9
	c0,2.5-1,4.7-3,6.5c-14.2,13.2-32,19.8-53.6,19.8C979.7,338.8,966,335.2,953.8,328z"/>
<path class="st0" d="M1195.5,183.3c11,5.9,19.8,14.5,26,25.8s9.5,24.8,9.5,40.6v76.6c0,3.1-1.1,5.8-3.2,7.9
	c-2.2,2.2-4.8,3.2-7.9,3.2c-3.4,0-6.1-1.1-8.3-3.2c-2.2-2.2-3.2-4.8-3.2-7.9v-76.6c0-17.5-4.9-30.8-14.6-40
	c-9.7-9.1-22.4-13.7-38.2-13.7c-9.6,0-18.4,1.9-26,5.6c-7.8,3.7-13.9,8.9-18.4,15.5c-4.6,6.6-6.7,13.9-6.7,22v87.2
	c0,3.4-1.1,6-3.1,8.2s-4.8,3.1-8.2,3.1s-6.1-1.1-8.3-3.1c-2.2-2-3.2-4.8-3.2-8.2V118.7c0-3.4,1.1-6.1,3.2-8.3
	c2.2-2.2,4.9-3.2,8.3-3.2s6,1.1,8.2,3.2c2,2.2,3.1,4.9,3.1,8.3v79c6.5-7.3,14.3-13,23.5-17c9.2-4.1,19.2-6.2,30-6.2
	C1171.8,174.4,1184.4,177.4,1195.5,183.3z"/>
<path class="st0" d="M1353.7,177.7c4.8,2.2,7.2,5.2,7.2,9.1c0,1.2-0.1,2-0.2,2.6c-0.8,2.8-2,4.6-3.7,5.6s-4,1.4-7,1.4
	c-1.8,0-4.8-0.2-9.1-0.6c-1.6-0.2-4-0.2-7.1-0.2c-14.8,0-26.8,4-36.1,11.8c-9.4,7.8-14,18.1-14,30.6v88.1c0,3.5-1,6.2-3,8.3
	c-1.9,1.9-4.7,3-8.3,3c-3.5,0-6.2-1-8.3-3c-1.9-1.9-3-4.7-3-8.3V187.4c0-3.5,1-6.2,3-8.3c1.9-1.9,4.7-3,8.3-3c3.5,0,6.2,1,8.3,3
	c1.9,1.9,3,4.7,3,8.3v13c5.6-8.3,13-14.6,21.8-19.2c8.9-4.6,18.4-6.7,28.6-6.7C1342.3,174.4,1348.8,175.5,1353.7,177.7z"/>
<path class="st0" d="M1403.3,328.3c-12.5-7.1-22.2-16.8-29.3-29.3s-10.6-26.5-10.6-42s3.5-29.5,10.6-42.1s16.8-22.4,29.3-29.5
	s26.5-10.6,42-10.6s29.5,3.5,41.9,10.6s22.2,16.9,29.3,29.5c7.2,12.6,10.8,26.6,10.8,42.1s-3.5,29.5-10.6,42s-16.8,22.2-29.3,29.3
	c-12.5,7.1-26.5,10.6-42,10.6C1429.7,338.8,1415.7,335.3,1403.3,328.3z M1475.9,310.3c9-5.3,16.1-12.6,21.2-22
	c5.2-9.4,7.7-19.8,7.7-31.3c0-11.8-2.5-22.3-7.7-31.7s-12.2-16.7-21.2-22s-19.2-7.9-30.6-7.9c-11.2,0-21.4,2.6-30.5,7.9
	c-9.1,5.3-16.3,12.6-21.5,22s-7.8,19.9-7.8,31.7c0,11.6,2.6,22.1,7.8,31.3c5.2,9.4,12.4,16.7,21.5,22s19.3,7.9,30.5,7.9
	C1456.6,318.2,1466.8,315.5,1475.9,310.3z"/>
<path class="st0" d="M1752,182.7c8.9,5.5,16,13.3,20.9,23.4c5,10.1,7.6,21.8,7.6,35.2v84.8c0,3.4-1.1,6-3.1,8.2s-4.8,3.1-8.2,3.1
	c-3.4,0-6.1-1.1-8.3-3.1s-3.2-4.8-3.2-8.2v-84.8c0-13.9-3.6-25-10.8-33.1s-16.6-12.2-28.1-12.2c-12.4,0-22.4,4.1-30,12.4
	c-7.7,8.3-11.4,19.1-11.2,32.4v0.6v84.8c0,3.4-1.1,6-3.1,8.2s-4.8,3.1-8.2,3.1c-3.4,0-6.1-1.1-8.3-3.1s-3.2-4.8-3.2-8.2v-84.8
	c0-13.9-3.6-25-10.8-33.1s-16.6-12.2-28.1-12.2c-12.2,0-22.2,4.1-30,12.1s-11.8,18.4-11.8,31v87.2c0,3.4-1.1,6-3.1,8.2
	s-4.8,3.1-8.2,3.1s-6.1-1.1-8.3-3.1s-3.2-4.8-3.2-8.2V187.6c0-3.4,1.1-6.1,3.2-8.3c2.2-2.2,4.9-3.2,8.3-3.2s6,1.1,8.2,3.2
	c2,2.2,3.1,4.9,3.1,8.3v6.5c5.5-6.2,12-11.2,19.6-14.6s15.7-5.2,24.6-5.2c10.8,0,20.5,2.4,29.2,7.3s15.5,11.8,20.6,20.6
	c5.6-8.9,13.1-15.7,22.2-20.6c9.1-4.9,19.4-7.3,30.8-7.3C1732.8,174.4,1743,177.2,1752,182.7z"/>
<path class="st0" d="M1922.5,184.9c11.2,6.7,19.9,16.2,26,28.1c6.2,12,9.2,25.7,9.2,40.9c0,3.1-1,5.6-3,7.6
	c-1.9,1.9-4.6,2.8-7.7,2.8h-119c1.6,16.1,7.8,29.2,18.8,39.2s24.7,15,41.3,15c7.1,0,14.2-1.2,21.4-3.7c7.2-2.4,13-5.5,17.3-9.2
	c2.5-1.9,5.2-3,7.9-3c2.2,0,4.3,0.8,6.5,2.4c2.5,2.4,3.8,5,3.8,7.9c0,2.5-1.1,4.8-3.2,6.7c-6.5,5.5-14.8,10.1-24.7,13.7
	c-10,3.6-19.7,5.4-28.9,5.4c-15.7,0-29.8-3.5-42.1-10.4c-12.4-7-22.1-16.7-29-29.2s-10.4-26.5-10.4-42.2c0-16,3.2-30.1,9.8-42.6
	s15.7-22.2,27.4-29.2c11.6-7,25-10.4,40-10.4C1898.4,174.7,1911.4,178.1,1922.5,184.9z M1846.8,208.9c-9.8,9.2-15.8,21.4-18,36.5
	h107.9c-1.6-15.1-7.1-27.2-16.4-36.5c-9.5-9.2-21.5-13.8-36.2-13.8C1869,195.1,1856.7,199.6,1846.8,208.9z"/>
<g>
	<path class="st0" d="M875.2,113.6c2.2-0.4,4.3-0.4,6.4,0.1h0.2c2,0.5,4.1,1.4,5.9,2.8c1.8,1.3,3.5,3,4.7,5c1.2,1.9,1.9,4,2.2,6v0.1
		c0.6,4.4-0.7,8.8-3.6,12.1c-2.6,3.1-6.5,5-10.6,5.5c-0.7,0.1-1.3,0.1-1.9,0.1c-1.3,0-2.6-0.1-3.8-0.5c-1.8-0.5-3.6-1.2-5.3-2.4
		l-0.1-0.1c-1.7-1.2-3.1-2.8-4.2-4.4c-1.1-1.7-1.8-3.5-2.2-5.4c-0.8-4.1-0.1-8.3,1.9-11.8C867,116.9,870.9,114.3,875.2,113.6z"/>
</g>
<linearGradient id="SVGID_1_" gradientUnits="userSpaceOnUse" x1="103.3356" y1="157.1093" x2="372.4644" y2="312.4908" gradientTransform="matrix(1 0 0 -1 0 480)">
	<stop  offset="0" style="stop-color:#FFFFFF"/>
	<stop  offset="0.2144" style="stop-color:#D33F74"/>
	<stop  offset="0.8628" style="stop-color:#00B1E4"/>
</linearGradient>
<circle class="st1" cx="237.9" cy="245.2" r="145.7"/>
<path class="st0" d="M168.9,163.1c-7.1,0-13,5.8-13,13c0,7.1,5.8,13,13,13s13-5.8,13-13C181.7,168.9,175.9,163.1,168.9,163.1z"/>
<circle class="st0" cx="260.8" cy="176.1" r="13"/>
<path class="st2" d="M168.9,209.2c-7.1,0-13,5.8-13,13c0,7.1,5.8,13,13,13s13-5.8,13-13C181.7,215,175.9,209.2,168.9,209.2z"/>
<ellipse class="st2" cx="214.8" cy="222.2" rx="13" ry="13"/>
<circle class="st2" cx="260.8" cy="222.2" r="13"/>
<circle class="st2" cx="306.7" cy="222.2" r="13"/>
<path class="st3" d="M168.9,255.3c-7.1,0-13,5.8-13,13c0,7.1,5.8,13,13,13s13-5.8,13-13C181.7,261.1,175.9,255.3,168.9,255.3z"/>
<ellipse class="st3" cx="214.8" cy="268.3" rx="13" ry="13"/>
<circle class="st3" cx="260.8" cy="268.3" r="13"/>
<circle class="st3" cx="306.7" cy="268.3" r="13"/>
<ellipse class="st4" cx="214.8" cy="314.3" rx="13" ry="13"/>
<circle class="st4" cx="306.7" cy="314.3" r="13"/>
</svg>
