<svg id="Layer_1" data-name="Layer 1" xmlns="http://www.w3.org/2000/svg" xmlns:xlink="http://www.w3.org/1999/xlink" viewBox="0 0 80 80"><defs><style>.cls-1{fill:none;stroke-miterlimit:10;stroke-width:4.33px;stroke:url(#linear-gradient);}.cls-2,.cls-3,.cls-4,.cls-5{fill:#fff;}.cls-3{opacity:0.6;}.cls-4{opacity:0.35;}.cls-5{opacity:0.15;}</style><linearGradient id="linear-gradient" x1="9.87" y1="57.4" x2="70.13" y2="22.6" gradientUnits="userSpaceOnUse"><stop offset="0" stop-color="#fff"/><stop offset="0.21" stop-color="#d33f74"/><stop offset="0.86" stop-color="#00b1e4"/></linearGradient></defs><title>Artboard 4</title><circle class="cls-1" cx="40" cy="40" r="32.62"/><path class="cls-2" d="M24.55,21.62a2.9,2.9,0,1,0,2.9,2.9A2.9,2.9,0,0,0,24.55,21.62Z"/><circle class="cls-2" cx="45.13" cy="24.52" r="2.9"/><path class="cls-3" d="M24.55,31.94a2.9,2.9,0,1,0,2.9,2.9A2.9,2.9,0,0,0,24.55,31.94Z"/><circle class="cls-3" cx="34.84" cy="34.84" r="2.9" transform="translate(-5.13 6.03) rotate(-9.22)"/><circle class="cls-3" cx="45.13" cy="34.84" r="2.9"/><circle class="cls-3" cx="55.43" cy="34.84" r="2.9"/><path class="cls-4" d="M24.55,42.26a2.9,2.9,0,1,0,2.9,2.9A2.9,2.9,0,0,0,24.55,42.26Z"/><circle class="cls-4" cx="34.84" cy="45.16" r="2.9" transform="translate(-9.44 9.21) rotate(-13.28)"/><circle class="cls-4" cx="45.13" cy="45.16" r="2.9"/><circle class="cls-4" cx="55.43" cy="45.16" r="2.9"/><circle class="cls-5" cx="34.84" cy="55.48" r="2.9" transform="matrix(0.99, -0.16, 0.16, 0.99, -8.44, 6.3)"/><circle class="cls-5" cx="55.43" cy="55.48" r="2.9"/></svg>