<svg id="Layer_1" data-name="Layer 1" xmlns="http://www.w3.org/2000/svg" viewBox="0 0 80 80"><defs><style>.cls-1{fill:none;stroke:#fff;stroke-linecap:round;stroke-linejoin:round;stroke-width:1.8px;}.cls-2{fill:#fff;}</style></defs><title>Artboard 3</title><rect class="cls-1" x="7.46" y="7.46" width="65.07" height="65.07"/><path class="cls-2" d="M54,28.08H29.42a2.48,2.48,0,0,1,0-4.95H54a.9.9,0,0,0,0-1.8H29.42a4.28,4.28,0,0,0-4.27,4.27,3.44,3.44,0,0,0,0,.46.76.76,0,0,0,0,.21V54.4a4.28,4.28,0,0,0,4.27,4.27H54a.9.9,0,0,0,.9-.9V29A.9.9,0,0,0,54,28.08ZM27,54.4V29.08a4.24,4.24,0,0,0,2.47.8h.68v27h-.68A2.48,2.48,0,0,1,27,54.4Zm26.1,2.47H31.9v-27H53.05Z"/><path class="cls-2" d="M54,24.7H29.42a.9.9,0,1,0,0,1.8H54a.9.9,0,0,0,0-1.8Z"/></svg>