<svg id="Layer_1" data-name="Layer 1" xmlns="http://www.w3.org/2000/svg" viewBox="0 0 80 80"><defs><style>.cls-1{fill:none;stroke:#fff;stroke-linecap:round;stroke-linejoin:round;stroke-width:1.8px;}.cls-2{fill:#fff;}</style></defs><title>Artboard 1</title><rect class="cls-1" x="7.46" y="7.46" width="65.07" height="65.07"/><path class="cls-2" d="M40.62,28.49a.91.91,0,0,0-1.29,0l-11.74,12A.91.91,0,0,0,28.24,42a.89.89,0,0,0,.64-.27L39,31.36V56.28a.9.9,0,0,0,1.8,0v-25L51,41.68a.91.91,0,0,0,1.28,0,.9.9,0,0,0,0-1.27Z"/><path class="cls-2" d="M52.48,22.82h-25a.9.9,0,0,0,0,1.8h25a.9.9,0,0,0,0-1.8Z"/></svg>