<svg id="Layer_1" data-name="Layer 1" xmlns="http://www.w3.org/2000/svg" viewBox="0 0 80 80"><defs><style>.cls-1{fill:none;stroke:#fff;stroke-linecap:round;stroke-linejoin:round;stroke-width:1.8px;}.cls-2{fill:#fff;}</style></defs><title>save</title><rect class="cls-1" x="7.46" y="7.46" width="65.07" height="65.07" transform="translate(80 80) rotate(180)"/><path class="cls-2" d="M39.38,51.51a.91.91,0,0,0,1.29,0l11.74-12A.91.91,0,0,0,51.76,38a.89.89,0,0,0-.64.27L41,48.64V23.72a.9.9,0,1,0-1.8,0v25L29,38.32a.91.91,0,0,0-1.28,0,.9.9,0,0,0,0,1.27Z"/><path class="cls-2" d="M27.52,57.18h25a.9.9,0,0,0,0-1.8h-25a.9.9,0,0,0,0,1.8Z"/></svg>